<?xml version="1.0" standalone="no"?>
<!DOCTYPE svg PUBLIC "-//W3C//DTD SVG 20010904//EN"
 "http://www.w3.org/TR/2001/REC-SVG-20010904/DTD/svg10.dtd">
<svg version="1.0" xmlns="http://www.w3.org/2000/svg"
 width="512.000000pt" height="512.000000pt" viewBox="0 0 512.000000 512.000000"
 preserveAspectRatio="xMidYMid meet">

<g transform="translate(0.000000,512.000000) scale(0.100000,-0.100000)"
fill="#ffffff" stroke="none">
<path d="M968 4280 c-98 -29 -154 -148 -117 -247 5 -16 329 -347 729 -748
l720 -720 -716 -715 c-393 -393 -721 -726 -728 -740 -37 -69 -27 -146 27 -207
54 -62 129 -79 205 -48 26 11 252 231 754 732 l717 717 707 -713 c420 -423
723 -720 745 -732 46 -23 128 -25 168 -5 99 52 131 182 67 274 -14 20 -340
352 -725 736 l-699 699 723 721 c693 691 724 723 734 769 20 86 -20 176 -94
211 -46 22 -123 22 -166 1 -19 -9 -355 -337 -747 -728 l-712 -712 -718 717
c-502 502 -728 722 -754 733 -40 16 -77 18 -120 5z"/>
</g>
</svg>
